<svg width="38" height="38" viewBox="0 0 38 38" fill="none" xmlns="http://www.w3.org/2000/svg">
<g id="Capa_1" clip-path="url(#clip0_75_21587)">
<path id="Vector" d="M37.9999 19.0322C37.9742 29.5322 29.4116 38.045 18.9197 38.0065C8.42152 37.9617 -0.0514081 29.404 -0.000134725 18.8847C0.0511387 8.41039 8.58175 -0.0383307 19.0672 0.000130798C29.5398 0.0385923 38.0255 8.57064 37.9999 19.0258V19.0322ZM35.6349 19.0258C35.6413 9.82705 28.2195 2.37193 19.0351 2.35269C9.84436 2.33346 2.36485 9.76936 2.34562 18.936C2.3264 28.1412 9.74181 35.6219 18.9069 35.6412C28.1618 35.6604 35.6221 28.2501 35.6349 19.0258Z" fill="white"/>
<path id="Vector_2" d="M22.8167 20.526C24.3356 23.3529 25.8226 26.1157 27.3736 28.9939C26.1046 28.9939 24.983 29.0195 23.8614 28.9683C23.6627 28.9619 23.4063 28.6926 23.2909 28.4811C22.1501 26.3336 21.0093 24.1862 19.9197 22.0067C19.6313 21.4362 19.2916 21.2503 18.6827 21.2824C17.715 21.3336 16.7408 21.2952 15.6704 21.2952V28.949H12.2415V9.09006C12.2928 9.05801 12.3377 9.00673 12.3825 9.00673C15.2795 9.03878 18.1892 8.87211 21.0605 9.16698C25.7841 9.65416 27.0467 13.276 26.2199 16.8208C25.8995 18.1862 25.0342 19.1798 23.8678 19.9298C23.5473 20.1349 23.2076 20.308 22.8102 20.5388L22.8167 20.526ZM15.7153 18.3721C17.3176 18.3721 18.8878 18.5067 20.4196 18.3336C22.0155 18.1606 22.9448 16.8849 22.9769 15.2631C23.0153 13.5067 22.1886 12.2054 20.6119 11.9747C19.016 11.7439 17.3753 11.7888 15.7153 11.7054V18.3657V18.3721Z" fill="white"/>
</g>
<defs>
<clipPath id="clip0_75_21587">
<rect width="38" height="38" fill="white"/>
</clipPath>
</defs>
</svg>
